Coordinates
version=1
nRows=31
nColumns=34
inDegrees=no

Units are S.I. units (second, meters, Newtons, ...)
If the header above contains a line with 'inDegrees', this indicates whether rotational values are in degrees (yes) or radians (no).

endheader
time	pelvis_tilt	pelvis_list	pelvis_rotation	pelvis_tx	pelvis_ty	pelvis_tz	hip_flexion_r	hip_adduction_r	hip_rotation_r	knee_angle_r	ankle_angle_r	subtalar_angle_r	mtp_angle_r	hip_flexion_l	hip_adduction_l	hip_rotation_l	knee_angle_l	ankle_angle_l	subtalar_angle_l	mtp_angle_l	lumbar_extension	lumbar_bending	lumbar_rotation	arm_flex_r	arm_add_r	arm_rot_r	elbow_flex_r	pro_sup_r	arm_flex_l	arm_add_l	arm_rot_l	elbow_flex_l	pro_sup_l
0.45	-0.00267439	-0.0582342	-0.0135155	0.367425	0.958503	-0.159328	-0.0831401	0.142	-0.226287	0.0924796	0.292096	0.287777	-0.0218199	0.516687	-0.138932	-0.182458	0.497502	0.105325	0.111701	-0.0218439	-0.204503	-0.0143722	-0.00448897	0.369556	-0.329924	0.237898	1.10244	1.8287	-0.261679	-0.171936	-0.266469	0.476489	1.76306
0.46	9.23523e-05	-0.0576661	-0.0195795	0.379491	0.956616	-0.158743	-0.103209	0.140946	-0.228468	0.0897017	0.307457	0.304684	-0.0218144	0.510412	-0.136522	-0.214134	0.433534	0.119275	0.181413	-0.0218384	-0.208244	-0.0161575	-0.00218135	0.388442	-0.33416	0.244179	1.13106	1.82753	-0.278127	-0.1696	-0.27796	0.471417	1.75244
0.47	0.0035777	-0.0571608	-0.0246355	0.391623	0.954625	-0.158356	-0.122774	0.139083	-0.232824	0.0896261	0.324188	0.322526	-0.0218089	0.503687	-0.132721	-0.245471	0.373689	0.132528	0.252753	-0.0218329	-0.212734	-0.0175399	-0.000432536	0.406235	-0.338499	0.249755	1.15885	1.82648	-0.293938	-0.1673	-0.287394	0.46851	1.74212
0.48	0.00761802	-0.0564534	-0.028766	0.403838	0.95256	-0.158161	-0.141467	0.136088	-0.239258	0.092598	0.342238	0.341084	-0.0218034	0.496789	-0.127346	-0.275536	0.319037	0.14481	0.322411	-0.0218274	-0.217763	-0.0188516	0.000826408	0.422778	-0.342842	0.254521	1.18558	1.82548	-0.308935	-0.165106	-0.294982	0.467351	1.73236
0.49	0.0120027	-0.0553067	-0.0321215	0.416156	0.950448	-0.158138	-0.158934	0.131718	-0.247367	0.098842	0.361394	0.359812	-0.021798	0.489957	-0.120424	-0.303544	0.270588	0.155906	0.386946	-0.0218219	-0.223038	-0.0204156	0.0017333	0.437826	-0.347079	0.258339	1.21108	1.82443	-0.322959	-0.163078	-0.301046	0.467505	1.72344
0.5	0.0164971	-0.0535531	-0.0349047	0.428604	0.948312	-0.158257	-0.174894	0.125854	-0.256459	0.108408	0.381267	0.377868	-0.0217925	0.483403	-0.112216	-0.328982	0.22929	0.165657	0.4432	-0.0218164	-0.228218	-0.0224988	0.00247844	0.451063	-0.351104	0.261052	1.23526	1.82325	-0.335892	-0.161266	-0.305984	0.468562	1.71561
0.51	0.0208674	-0.0511217	-0.0373467	0.441212	0.946173	-0.158477	-0.189174	0.118536	-0.265604	0.121143	0.401305	0.394189	-0.021787	0.477319	-0.103201	-0.351666	0.196	0.173917	0.488668	-0.0218109	-0.232942	-0.0252754	0.00328276	0.462118	-0.354825	0.26251	1.25811	1.82182	-0.347667	-0.159697	-0.310223	0.470174	1.70903
0.52	0.0249025	-0.048046	-0.0396809	0.454009	0.944048	-0.158751	-0.201731	0.109964	-0.273731	0.136698	0.420815	0.407602	-0.0217815	0.471881	-0.0940179	-0.371704	0.171404	0.180488	0.521751	-0.0218054	-0.236872	-0.02881	0.00437166	0.470603	-0.358177	0.2626	1.27968	1.82005	-0.358264	-0.158374	-0.314172	0.472075	1.70374
0.53	0.028433	-0.0444479	-0.0421176	0.467024	0.941949	-0.159036	-0.212637	0.100467	-0.279753	0.154579	0.43902	0.416959	-0.021776	0.467239	-0.0853513	-0.389366	0.155905	0.185055	0.541844	-0.0217999	-0.239734	-0.0330652	0.00594613	0.476157	-0.361121	0.261273	1.30008	1.81784	-0.367704	-0.157282	-0.318179	0.474079	1.69969
0.54	0.0313456	-0.0405011	-0.0448215	0.480277	0.939882	-0.159294	-0.222046	0.0904325	-0.282725	0.174239	0.455126	0.421307	-0.0217706	0.463492	-0.0778057	-0.404895	0.149505	0.187143	0.549249	-0.0217944	-0.241348	-0.0379311	0.00815377	0.478494	-0.36364	0.258555	1.3194	1.81513	-0.376019	-0.15639	-0.322488	0.476074	1.6967
0.55	0.0335901	-0.0363813	-0.0478933	0.493779	0.937853	-0.159501	-0.230133	0.0802273	-0.281999	0.195193	0.468388	0.420034	-0.0217651	0.460673	-0.0717791	-0.418339	0.151721	0.186151	0.544956	-0.0217889	-0.241652	-0.0432703	0.0110629	0.477434	-0.365737	0.254562	1.33771	1.81189	-0.383235	-0.155661	-0.327223	0.477993	1.69452
0.56	0.0351976	-0.032206	-0.0513567	0.50753	0.935909	-0.159657	-0.237039	0.0701163	-0.277324	0.217122	0.478149	0.412975	-0.0217596	0.458744	-0.067383	-0.429458	0.161593	0.18145	0.530379	-0.0217834	-0.240696	-0.0489562	0.0146453	0.472934	-0.367414	0.249487	1.35502	1.80815	-0.389349	-0.155063	-0.332369	0.47979	1.69288
0.57	0.0362412	-0.0280193	-0.055155	0.52151	0.934077	-0.159771	-0.242812	0.0602045	-0.268887	0.239963	0.48386	0.400438	-0.0217541	0.45761	-0.064418	-0.437767	0.177805	0.17257	0.507123	-0.0217779	-0.238639	-0.0549178	0.0187708	0.465085	-0.368669	0.243578	1.37126	1.80403	-0.394316	-0.154579	-0.337772	0.481416	1.69152
0.58	0.0368279	-0.0237732	-0.0591587	0.53569	0.932389	-0.159865	-0.24737	0.0504184	-0.25727	0.263949	0.485054	0.383154	-0.0217487	0.457157	-0.0624226	-0.442678	0.19888	0.159399	0.476836	-0.0217724	-0.235717	-0.0611538	0.0232174	0.454095	-0.369481	0.237114	1.38625	1.79972	-0.398049	-0.154216	-0.343151	0.482803	1.69018
0.59	0.0370754	-0.0193389	-0.0631864	0.550025	0.930872	-0.159973	-0.250475	0.0405271	-0.243334	0.289601	0.481309	0.36215	-0.0217432	0.457284	-0.0607702	-0.443689	0.223394	0.142361	0.441112	-0.0217669	-0.232196	-0.0677275	0.0276991	0.440272	-0.369812	0.230368	1.39976	1.79546	-0.400429	-0.154006	-0.348125	0.483868	1.68869
0.6	0.0370868	-0.0145346	-0.0670343	0.564467	0.929553	-0.16013	-0.251723	0.0301957	-0.228057	0.317673	0.472199	0.338571	-0.0217377	0.457924	-0.0587832	-0.440537	0.250135	0.122484	0.401442	-0.0217614	-0.228328	-0.0747457	0.0319041	0.423981	-0.369602	0.223588	1.41148	1.79157	-0.401321	-0.154003	-0.352248	0.484521	1.68696
0.61	0.0369293	-0.00916007	-0.0705075	0.578961	0.928456	-0.160372	-0.250576	0.0190563	-0.212361	0.349057	0.457261	0.313498	-0.0217323	0.459032	-0.0558319	-0.433267	0.27817	0.101334	0.359177	-0.0217559	-0.22432	-0.0823297	0.0355342	0.405621	-0.368784	0.216983	1.42106	1.78837	-0.400592	-0.154276	-0.355063	0.484686	1.68498
0.62	0.036623	-0.00303073	-0.0734476	0.593452	0.927596	-0.160728	-0.246403	0.00677933	-0.196985	0.384653	0.435999	0.287791	-0.0217268	0.46056	-0.0514044	-0.422238	0.306806	0.0808093	0.315527	-0.0217504	-0.220303	-0.0905871	0.0383405	0.385594	-0.367288	0.210714	1.42814	1.78617	-0.398131	-0.154891	-0.356159	0.484328	1.68286
0.63	0.0361405	0.00399342	-0.0757541	0.607887	0.926985	-0.161216	-0.238552	-0.00686534	-0.1824	0.425245	0.407937	0.261995	-0.0217213	0.46241	-0.0451492	-0.408098	0.335489	0.062856	0.271609	-0.0217449	-0.216337	-0.0995895	0.0401484	0.364291	-0.365056	0.204903	1.43238	1.78522	-0.393862	-0.155896	-0.355235	0.483472	1.6808
0.64	0.0354157	0.0119839	-0.0773993	0.622219	0.926627	-0.161841	-0.226426	-0.0219619	-0.168789	0.471368	0.37272	0.236305	-0.0217159	0.464404	-0.0368996	-0.391738	0.363692	0.0491596	0.228522	-0.0217394	-0.212412	-0.109355	0.0408734	0.342078	-0.362052	0.199647	1.43344	1.78569	-0.387749	-0.157312	-0.352153	0.482216	1.67913
0.65	0.0343556	0.0209232	-0.0784382	0.636405	0.926519	-0.162593	-0.20955	-0.0384212	-0.156066	0.523213	0.330254	0.210577	-0.0217104	0.466277	-0.0266889	-0.374247	0.390824	0.0408998	0.187414	-0.0217339	-0.208471	-0.119839	0.0405287	0.31931	-0.358271	0.195043	1.43105	1.78764	-0.379805	-0.159121	-0.346959	0.480739	1.67825
0.66	0.0328568	0.0307038	-0.079009	0.650407	0.926654	-0.163451	-0.187644	-0.0559725	-0.14394	0.580567	0.280859	0.184395	-0.0217049	0.467688	-0.0147502	-0.356834	0.416202	0.0386129	0.149494	-0.0217284	-0.204432	-0.130922	0.0392179	0.296332	-0.353742	0.191205	1.42493	1.79102	-0.370087	-0.161267	-0.339888	0.479299	1.67862
0.67	0.0308352	0.0411384	-0.0793134	0.664198	0.927022	-0.164381	-0.160667	-0.0741783	-0.132006	0.642788	0.225409	0.157156	-0.0216995	0.468252	-0.00149824	-0.340726	0.439094	0.0421849	0.11598	-0.0217229	-0.20022	-0.142408	0.0371153	0.273494	-0.348533	0.188285	1.41486	1.79566	-0.3587	-0.16366	-0.331313	0.478221	1.68063
0.68	0.0282526	0.0519659	-0.0795834	0.677753	0.927605	-0.165342	-0.12886	-0.0924734	-0.119848	0.708834	0.165413	0.128193	-0.021694	0.467576	0.0125184	-0.327038	0.458797	0.0509541	0.08798	-0.0217174	-0.195798	-0.154035	0.0344287	0.25115	-0.342745	0.186474	1.40065	1.80131	-0.345798	-0.166194	-0.321687	0.477886	1.6846
0.69	0.0251355	0.0628685	-0.0800368	0.69106	0.928389	-0.166293	-0.0927459	-0.11022	-0.107143	0.77733	0.102999	0.0968823	-0.0216885	0.465304	0.026684	-0.316634	0.47474	0.0638837	0.0663546	-0.0217119	-0.191193	-0.165491	0.0313513	0.229661	-0.336504	0.186003	1.3821	1.80764	-0.33158	-0.168769	-0.311453	0.478715	1.69066
0.7	0.0215827	0.0734946	-0.0808288	0.704113	0.929358	-0.1672	-0.0531122	-0.126769	-0.0937383	0.846666	0.0407907	0.062747	-0.0216831	0.461144	0.0403914	-0.310009	0.486565	0.0797572	0.0515937	-0.0217064	-0.186506	-0.176431	0.0280155	0.209372	-0.329958	0.187123	1.3591	1.81429	-0.316285	-0.171302	-0.300977	0.481141	1.6987
0.71	0.0177593	0.0834829	-0.0820105	0.716915	0.930502	-0.168041	-0.0109485	-0.141529	-0.0796945	0.91512	-0.0183421	0.025546	-0.0216776	0.454898	0.0531125	-0.307224	0.494177	0.0973552	0.0437433	-0.0217009	-0.181914	-0.1865	0.0244559	0.190594	-0.323259	0.190077	1.33155	1.82091	-0.30018	-0.173748	-0.290491	0.485586	1.70835
0.72	0.0138775	0.0924858	-0.0835045	0.729478	0.931814	-0.168807	0.0326333	-0.154015	-0.0652961	0.980979	-0.0716163	-0.0146645	-0.0216722	0.446465	0.0644485	-0.3079	0.497739	0.115591	0.0424004	-0.0216954	-0.17765	-0.195345	0.0205933	0.173565	-0.31656	0.195065	1.29947	1.82721	-0.283539	-0.176102	-0.28009	0.492418	1.71901
0.73	0.0101695	0.100189	-0.0851047	0.741821	0.93329	-0.169505	0.0764937	-0.163894	-0.051018	1.04265	-0.116696	-0.0574935	-0.0216667	0.435843	0.074154	-0.311277	0.49763	0.133589	0.046771	-0.0216899	-0.173976	-0.202641	0.0162444	0.15843	-0.310006	0.202204	1.26295	1.83297	-0.266617	-0.178392	-0.269748	0.501926	1.72995
0.74	0.00685372	0.106333	-0.0865027	0.753967	0.934927	-0.170153	0.119563	-0.171007	-0.0374616	1.09876	-0.152005	-0.102211	-0.0216612	0.423112	0.0821325	-0.316333	0.494373	0.15072	0.0557794	-0.0216845	-0.171144	-0.208102	0.0111595	0.145209	-0.303725	0.211489	1.22227	1.83805	-0.249628	-0.180675	-0.259366	0.514283	1.74037
0.75	0.00410176	0.110726	-0.0873367	0.765945	0.936721	-0.17078	0.160924	-0.175365	-0.0252698	1.1482	-0.176909	-0.147784	-0.0216558	0.408423	0.0884111	-0.321933	0.488553	0.166592	0.0682044	-0.021679	-0.16936	-0.211502	0.00507901	0.13379	-0.297826	0.222771	1.1778	1.84246	-0.232722	-0.183017	-0.248828	0.529533	1.74956
